<svg id="Soccer_field" height="512" viewBox="0 0 64 64" width="512" xmlns="http://www.w3.org/2000/svg" data-name="Soccer field"><g fill="#91cc04"><path d="m62 14v4a4 4 0 0 1 -4-4z"/><path d="m62 46v4h-4a4 4 0 0 1 4-4z"/><path d="m6 14a4 4 0 0 1 -4 4v-4z"/></g><path d="m62 18v28a4 4 0 0 0 -4 4h-52a4 4 0 0 0 -4-4v-28a4 4 0 0 0 4-4h52a4 4 0 0 0 4 4z" fill="#4e901e"/><circle cx="32" cy="32" fill="#91cc04" r="7"/><path d="m2 24h8v16h-8z" fill="#91cc04"/><path d="m10 36a4 4 0 1 0 0-8z" fill="#91cc04"/><path d="m2 27h5v10h-5z" fill="#4e901e"/><path d="m54 24h8v16h-8z" fill="#91cc04"/><path d="m54 28a4 4 0 1 0 0 8z" fill="#91cc04"/><path d="m57 27h5v10h-5z" fill="#4e901e" transform="matrix(-1 0 0 -1 119 64)"/><path d="m6 50h-4v-4a4 4 0 0 1 4 4z" fill="#91cc04"/><path d="m62 13h-60a1 1 0 0 0 -1 1v36a1 1 0 0 0 1 1h60a1 1 0 0 0 1-1v-36a1 1 0 0 0 -1-1zm-9 21.819a2.969 2.969 0 0 1 -1.123-.7 3.007 3.007 0 0 1 0-4.246 2.969 2.969 0 0 1 1.123-.7zm2-9.819h6v1h-4a1 1 0 0 0 -1 1v10a1 1 0 0 0 1 1h4v1h-6zm6 11h-3v-8h3zm0-19.184a3 3 0 0 1 -1.816-1.816h1.816zm-30 21.094a5.993 5.993 0 0 1 0-11.82zm2-11.82a5.993 5.993 0 0 1 0 11.82zm-28.184-11.09a3 3 0 0 1 -1.816 1.816v-1.816zm6.184 14.181a2.969 2.969 0 0 1 1.123.7 3.007 3.007 0 0 1 0 4.246 2.969 2.969 0 0 1 -1.123.7zm-2 9.819h-6v-1h4a1 1 0 0 0 1-1v-10a1 1 0 0 0 -1-1h-4v-1h6zm-6-11h3v8h-3zm0 19.184a3 3 0 0 1 1.816 1.816h-1.816zm3.9 1.816a5.016 5.016 0 0 0 -3.9-3.9v-4.1h7a1 1 0 0 0 1-1v-3.1a4.957 4.957 0 0 0 2.537-1.362 5 5 0 0 0 -2.537-8.438v-3.1a1 1 0 0 0 -1-1h-7v-4.1a5.016 5.016 0 0 0 3.9-3.9h24.1v9.069a7.993 7.993 0 0 0 0 15.862v9.069zm26.1-9.069a7.993 7.993 0 0 0 0-15.862v-9.069h24.1a5.016 5.016 0 0 0 3.9 3.9v4.1h-7a1 1 0 0 0 -1 1v3.1a4.957 4.957 0 0 0 -2.537 1.362 5 5 0 0 0 2.537 8.438v3.1a1 1 0 0 0 1 1h7v4.1a5.016 5.016 0 0 0 -3.9 3.9h-24.1zm26.184 9.069a3 3 0 0 1 1.816-1.816v1.816z"/><path d="m51 45h-7a1 1 0 0 0 0 2h7a1 1 0 0 0 0-2z"/><path d="m55 45h-1a1 1 0 0 0 0 2h1a1 1 0 0 0 0-2z"/></svg>